<?xml version="1.0" encoding="UTF-8"?>
<svg xmlns="http://www.w3.org/2000/svg" viewBox="0 0 256 256"><defs>
    <radialGradient id="sun" cx="50%" cy="32%" r="72%">
      <stop offset="0%" stop-color="#a855f7"/>
      <stop offset="100%" stop-color="#7222c2"/>
    </radialGradient>
    <clipPath id="sq"><rect x="8" y="8" width="240" height="240" rx="52"/></clipPath>
  </defs>
  <rect x="8" y="8" width="240" height="240" rx="52" fill="#1b1c1f"/>
  <g clip-path="url(#sq)">
    <line x1="27.5" y1="132.3" x2="9.8" y2="129.2" stroke="#9aa0a8" stroke-width="4" stroke-linecap="round"/>
<line x1="22.6" y1="118.5" x2="13.0" y2="115.6" stroke="#4c4f55" stroke-width="2.2" stroke-linecap="round"/>
<line x1="27.0" y1="106.4" x2="17.8" y2="102.5" stroke="#4c4f55" stroke-width="2.2" stroke-linecap="round"/>
<line x1="32.7" y1="95.0" x2="24.1" y2="90.0" stroke="#4c4f55" stroke-width="2.2" stroke-linecap="round"/>
<line x1="39.8" y1="84.3" x2="31.7" y2="78.3" stroke="#4c4f55" stroke-width="2.2" stroke-linecap="round"/>
<line x1="48.0" y1="74.5" x2="40.7" y2="67.7" stroke="#4c4f55" stroke-width="2.2" stroke-linecap="round"/>
<line x1="62.4" y1="71.9" x2="50.9" y2="58.1" stroke="#9aa0a8" stroke-width="4" stroke-linecap="round"/>
<line x1="67.6" y1="58.1" x2="62.1" y2="49.7" stroke="#4c4f55" stroke-width="2.2" stroke-linecap="round"/>
<line x1="78.6" y1="51.7" x2="74.1" y2="42.8" stroke="#4c4f55" stroke-width="2.2" stroke-linecap="round"/>
<line x1="90.4" y1="46.6" x2="87.0" y2="37.2" stroke="#4c4f55" stroke-width="2.2" stroke-linecap="round"/>
<line x1="102.6" y1="43.0" x2="100.3" y2="33.2" stroke="#4c4f55" stroke-width="2.2" stroke-linecap="round"/>
<line x1="115.2" y1="40.7" x2="114.1" y2="30.8" stroke="#4c4f55" stroke-width="2.2" stroke-linecap="round"/>
<line x1="128.0" y1="48.0" x2="128.0" y2="30.0" stroke="#9aa0a8" stroke-width="4" stroke-linecap="round"/>
<line x1="140.8" y1="40.7" x2="141.9" y2="30.8" stroke="#4c4f55" stroke-width="2.2" stroke-linecap="round"/>
<line x1="153.4" y1="43.0" x2="155.7" y2="33.2" stroke="#4c4f55" stroke-width="2.2" stroke-linecap="round"/>
<line x1="165.6" y1="46.6" x2="169.0" y2="37.2" stroke="#4c4f55" stroke-width="2.2" stroke-linecap="round"/>
<line x1="177.4" y1="51.7" x2="181.9" y2="42.8" stroke="#4c4f55" stroke-width="2.2" stroke-linecap="round"/>
<line x1="188.4" y1="58.1" x2="193.9" y2="49.7" stroke="#4c4f55" stroke-width="2.2" stroke-linecap="round"/>
<line x1="193.6" y1="71.9" x2="205.1" y2="58.1" stroke="#9aa0a8" stroke-width="4" stroke-linecap="round"/>
<line x1="208.0" y1="74.5" x2="215.3" y2="67.7" stroke="#4c4f55" stroke-width="2.2" stroke-linecap="round"/>
<line x1="216.2" y1="84.3" x2="224.3" y2="78.3" stroke="#4c4f55" stroke-width="2.2" stroke-linecap="round"/>
<line x1="223.3" y1="95.0" x2="231.9" y2="90.0" stroke="#4c4f55" stroke-width="2.2" stroke-linecap="round"/>
<line x1="229.0" y1="106.4" x2="238.2" y2="102.5" stroke="#4c4f55" stroke-width="2.2" stroke-linecap="round"/>
<line x1="233.4" y1="118.5" x2="243.0" y2="115.6" stroke="#4c4f55" stroke-width="2.2" stroke-linecap="round"/>
<line x1="228.5" y1="132.3" x2="246.2" y2="129.2" stroke="#9aa0a8" stroke-width="4" stroke-linecap="round"/>
    <circle cx="128" cy="124" r="50" fill="#8b30d9" opacity="0.15"/>
    <circle cx="128" cy="124" r="38" fill="url(#sun)"/>
    <polygon points="128,116 244,248 12,248" fill="#3a3c42"/>
    <polygon points="128,116 152,143 140,139 128,149 116,139 104,143" fill="#e8eaee"/>
    <polygon points="178,190 250,248 106,248" fill="#26272b"/>
  </g>
<circle cx="202" cy="202" r="44" fill="#D93036"/><rect x="184" y="198" width="36" height="26" rx="5" fill="#fff"/><path d="M191 198 v-7 a11 11 0 0 1 22 0 v7" fill="none" stroke="#fff" stroke-width="7"/></svg>